<svg xmlns="http://www.w3.org/2000/svg" xmlns:xlink="http://www.w3.org/1999/xlink" width="181" height="15" viewBox="0 0 181 15">
    <defs>
        <path id="a" d="M24.596.187v14.088H.219V.187h24.377z"/>
        <path id="c" d="M.22.302v3.056h3.085V.302H.219z"/>
        <path id="e" d="M.22.029v3.055h3.085V.03H.219z"/>
        <path id="g" d="M.22.187v3.055h5.477V.187H.219z"/>
        <path id="i" d="M.22.49v3.056h5.477V.49H.22z"/>
        <path id="k" d="M.22.302v3.056h4.968V.302H.219z"/>
        <path id="m" d="M4.261.186H.22v3.055h4.042V.186z"/>
        <path id="o" d="M.22.187v6.08h12.174V.187H.219z"/>
    </defs>
    <g fill="none" fill-rule="evenodd">
        <path fill="#333434" d="M42.907 12h-1.73l-4.436-7.062V12h-1.73V2.047h1.73l4.45 7.089v-7.09h1.716V12zm7.944-4.443h-4.088v3.062h4.778V12h-6.507V2.047h6.46V3.44h-4.731V6.19h4.088v1.368zm9.988 1.982l1.53-7.492h1.717L61.789 12h-1.655l-1.893-7.267L56.306 12h-1.66l-2.298-9.953h1.716l1.545 7.478 1.9-7.478h1.45l1.88 7.492zm9.79 1.08h5.318V12h-7.41v-1.121l5.147-7.438H68.57V2.047h7.212V3.14l-5.155 7.478zm12.7-3.062h-4.087v3.062h4.778V12h-6.508V2.047h6.46V3.44h-4.73V6.19h4.088v1.368zm7.753 2.126h-3.855L86.42 12h-1.798l3.76-9.953h1.552L93.7 12h-1.805l-.813-2.317zm-3.37-1.395h2.885L89.154 4.16l-1.442 4.13zm8.928 2.331h4.519V12H94.91V2.047h1.73v8.572zm11.628-.936h-3.855L103.606 12h-1.798l3.76-9.953h1.552L110.886 12h-1.804l-.814-2.317zm-3.37-1.395h2.885L106.34 4.16l-1.442 4.13zM119.992 12h-1.73l-4.436-7.062V12h-1.73V2.047h1.73l4.45 7.089v-7.09h1.716V12zm2.126 0V2.047h2.94c.88 0 1.66.196 2.341.588a4.009 4.009 0 0 1 1.583 1.668c.373.72.56 1.545.56 2.474v.5c0 .943-.188 1.772-.564 2.488a3.96 3.96 0 0 1-1.606 1.654c-.695.387-1.492.581-2.39.581h-2.864zm1.73-8.559v7.178h1.128c.907 0 1.603-.284 2.088-.85.486-.568.733-1.383.742-2.445v-.553c0-1.08-.235-1.905-.704-2.475-.47-.57-1.15-.855-2.044-.855h-1.21zm14.13 4.997h-3.588v-1.34h3.588v1.34zm9.77.964c0-.387-.123-.707-.37-.96-.246-.253-.656-.48-1.23-.684-.574-.202-1.02-.39-1.34-.564-1.062-.57-1.593-1.412-1.593-2.529 0-.756.23-1.379.69-1.866.461-.488 1.086-.777 1.874-.868V.44h1.094v1.503c.793.114 1.406.45 1.839 1.009.432.558.649 1.284.649 2.177h-1.654c0-.574-.13-1.027-.387-1.357-.257-.33-.607-.496-1.049-.496-.437 0-.78.119-1.025.356-.246.237-.37.576-.37 1.018 0 .397.122.715.366.954.244.24.658.466 1.241.68.583.214 1.041.413 1.374.595.333.182.613.39.84.625.229.235.404.505.527.81.123.306.185.664.185 1.074 0 .77-.236 1.394-.708 1.873-.471.478-1.129.76-1.972.847v1.333h-1.087v-1.326c-.902-.1-1.596-.424-2.081-.97-.486-.547-.728-1.272-.728-2.174h1.66c0 .574.145 1.018.435 1.333.29.314.698.471 1.227.471.52 0 .915-.125 1.186-.376.271-.25.407-.583.407-.998zM162.664 12h-1.73l-4.436-7.062V12h-1.73V2.047h1.73l4.45 7.089v-7.09h1.716V12zm3.754-1.38h5.318V12h-7.41v-1.121l5.147-7.438h-5.113V2.047h7.212V3.14l-5.154 7.478zm6.884 1.38V2.047h2.94c.879 0 1.66.196 2.34.588a4.009 4.009 0 0 1 1.583 1.668c.374.72.56 1.545.56 2.474v.5c0 .943-.187 1.772-.563 2.488a3.96 3.96 0 0 1-1.607 1.654c-.695.387-1.491.581-2.39.581h-2.863zm1.73-8.559v7.178h1.127c.907 0 1.603-.284 2.088-.85.486-.568.733-1.383.742-2.445v-.553c0-1.08-.235-1.905-.704-2.475-.47-.57-1.15-.855-2.044-.855h-1.21z"/>
        <g>
            <mask id="b" fill="#fff">
                <use xlink:href="#a"/>
            </mask>
            <path fill="#1A237B" d="M12.394.187v.675L9.69 2.203h2.704V4.193H9.69l2.704 1.375V6.267h-1.266L7.301 4.376v1.891H5.279V4.376L1.483 6.267H.218v8.009h24.38V.186z" mask="url(#b)"/>
        </g>
        <g transform="translate(0 3.889)">
            <mask id="d" fill="#fff">
                <use xlink:href="#c"/>
            </mask>
            <path fill="#1A237B" d="M.218.302v1.375l2.7-1.375z" mask="url(#d)"/>
        </g>
        <path fill="#1A237B" d="M7.301.187v1.836l3.75-1.836zM5.28.187H1.561l3.72 1.836z"/>
        <g transform="translate(0 .833)">
            <mask id="f" fill="#fff">
                <use xlink:href="#e"/>
            </mask>
            <path fill="#1A237B" d="M.218 1.37h2.7L.219.03z" mask="url(#f)"/>
        </g>
        <path fill="#FFF" d="M12.377.187L8.334 2.203h-.895l4.04-2.016h-.429L7.3 2.023V.187h-.401V2.57h5.494v-.367H9.692l2.7-1.341V.187z"/>
        <g>
            <mask id="h" fill="#fff">
                <use xlink:href="#g"/>
            </mask>
            <path fill="#FFF" d="M5.28.187v1.836L1.561.187H.22l4.043 2.016h-.914L.218.618v.244L2.92 2.203H.22v.367H5.697V.187z" mask="url(#h)"/>
        </g>
        <path fill="#FFF" d="M8.427 3.824H6.9v2.444h.402V4.377l3.827 1.891h1.265v-.03L8.335 4.19h.925l3.133 1.59v-.215l-2.7-1.375h2.7v-.366H8.875z"/>
        <g transform="translate(0 3.333)">
            <mask id="j" fill="#fff">
                <use xlink:href="#i"/>
            </mask>
            <path fill="#FFF" d="M5.077.49H.219v.367h2.7L.22 2.232v.672L4.262.857h.926L1.021 2.935h.463l3.797-1.892v1.892h.416V.49z" mask="url(#j)"/>
        </g>
        <g transform="translate(0 3.889)">
            <mask id="l" fill="#fff">
                <use xlink:href="#k"/>
            </mask>
            <path fill="#BD0034" d="M4.262.302L.219 2.35v.03h.805L5.188.303z" mask="url(#l)"/>
        </g>
        <g>
            <mask id="n" fill="#fff">
                <use xlink:href="#m"/>
            </mask>
            <path fill="#BD0034" d="M.218.616l3.13 1.589h.913L.218.185z" mask="url(#n)"/>
        </g>
        <path fill="#BD0034" d="M12.377.187h-.898l-4.04 2.016h.895zM8.335 4.191l4.059 2.047V5.78L9.26 4.19z"/>
        <g>
            <mask id="p" fill="#fff">
                <use xlink:href="#o"/>
            </mask>
            <path fill="#BD0034" d="M5.696.187V2.57H.218v1.253H5.696v2.444H6.9V3.823h5.494V2.57H6.9V.186z" mask="url(#p)"/>
        </g>
        <path fill="#FFF" d="M17.129 4.283h.648l.216-.61.185.61h.68l-.523.398.198.641-.54-.43-.54.43.2-.641z"/>
        <path fill="#BD0034" d="M17.423 4.376h.432l.139-.4.126.4h.46l-.386.272.17.397-.37-.241-.355.241.138-.397z"/>
        <path fill="#FFF" d="M14.46 6.936h.679l.2-.641.217.641h.645l-.522.404.2.608-.54-.397-.524.397.2-.608z"/>
        <path fill="#BD0034" d="M14.784 7.029h.416l.14-.425.123.425h.447l-.352.278.136.397-.355-.272-.34.272.124-.397z"/>
        <path fill="#FFF" d="M19.49 6.268h.602l.185-.52.17.52h.586l-.478.366.185.55-.463-.363-.494.363.186-.55z"/>
        <path fill="#BD0034" d="M19.752 6.36h.402l.123-.367.108.367h.386l-.309.211.108.367-.293-.211-.34.21.155-.366z"/>
        <path fill="#FFF" d="M17.037 11.036h.725l.232-.678.2.678h.756l-.57.428.215.73-.601-.427-.587.427.216-.73z"/>
        <path fill="#BD0034" d="M17.346 11.158h.494l.154-.489.139.49h.509l-.417.244.167.547-.398-.367-.386.367.139-.547z"/>
    </g>
</svg>
