<svg xmlns="http://www.w3.org/2000/svg" width="163" height="16" viewBox="0 0 163 16">
    <g fill="none" fill-rule="evenodd">
        <path fill="#333434" d="M41.214 10.437c0-.438-.154-.775-.462-1.012-.307-.237-.862-.476-1.664-.718-.802-.242-1.44-.51-1.914-.807-.907-.57-1.36-1.312-1.36-2.228 0-.802.326-1.463.98-1.983.654-.52 1.503-.779 2.547-.779.693 0 1.31.128 1.852.383a3.04 3.04 0 0 1 1.279 1.09c.31.472.465.995.465 1.57h-1.723c0-.52-.163-.927-.489-1.221-.326-.294-.792-.441-1.398-.441-.565 0-1.004.12-1.316.362-.312.242-.468.58-.468 1.012 0 .365.169.669.506.913.337.243.893.48 1.668.71.775.23 1.397.493 1.866.787.47.294.813.63 1.032 1.011.219.381.328.826.328 1.337 0 .83-.318 1.489-.953 1.979-.636.49-1.498.735-2.588.735-.72 0-1.382-.134-1.985-.4-.604-.267-1.074-.635-1.409-1.104-.335-.47-.502-1.016-.502-1.64h1.73c0 .564.186 1.002.56 1.312.374.31.91.465 1.606.465.602 0 1.054-.122 1.357-.366a1.18 1.18 0 0 0 .455-.967zM46.368 13h-1.722V3.047h1.722V13zm10.104 0h-1.73l-4.436-7.062V13h-1.73V3.047h1.73l4.45 7.089v-7.09h1.716V13zm9.756-1.292c-.36.47-.86.825-1.498 1.066-.638.242-1.362.363-2.173.363-.834 0-1.573-.19-2.215-.568a3.78 3.78 0 0 1-1.487-1.623c-.349-.704-.53-1.526-.543-2.465v-.779c0-1.504.36-2.678 1.08-3.524.72-.845 1.725-1.268 3.014-1.268 1.108 0 1.987.274 2.639.82.652.547 1.044 1.336 1.176 2.366h-1.696c-.191-1.199-.886-1.798-2.085-1.798-.774 0-1.363.279-1.767.837-.403.559-.611 1.378-.625 2.458v.765c0 1.076.227 1.911.68 2.506.453.594 1.084.892 1.89.892.884 0 1.513-.2 1.887-.602V9.206h-2.05V7.894h3.773v3.814zm7.554-1.025h-3.856L69.12 13h-1.797l3.76-9.953h1.551L76.4 13h-1.805l-.813-2.317zm-3.37-1.395h2.884L71.854 5.16 70.41 9.29zm8.927.014V13H77.61V3.047h3.808c1.112 0 1.995.29 2.649.868.654.579.98 1.344.98 2.297 0 .975-.32 1.734-.96 2.276-.64.543-1.537.814-2.69.814H79.34zm0-1.388h2.079c.615 0 1.084-.145 1.408-.434.323-.29.485-.708.485-1.254 0-.538-.164-.968-.492-1.289-.328-.321-.78-.486-1.354-.496H79.34v3.473zm15.245.37c0 .974-.169 1.83-.506 2.566-.337.736-.82 1.301-1.446 1.695-.626.395-1.348.592-2.163.592-.807 0-1.526-.197-2.157-.592-.631-.394-1.119-.955-1.463-1.685-.344-.729-.518-1.57-.523-2.522v-.56c0-.971.172-1.828.516-2.571.344-.743.83-1.311 1.456-1.706.627-.394 1.346-.59 2.157-.59.811 0 1.53.194 2.157.584.626.39 1.11.95 1.452 1.681.342.732.515 1.583.52 2.553v.554zm-1.73-.52c0-1.103-.208-1.949-.625-2.536-.417-.588-1.008-.882-1.774-.882-.747 0-1.332.293-1.753.878-.422.586-.637 1.414-.646 2.485v.574c0 1.094.213 1.94.639 2.536.426.597 1.017.896 1.774.896.765 0 1.354-.292 1.767-.875.412-.583.618-1.436.618-2.557v-.52zm7.192 1.401h-1.928V13H96.39V3.047h3.5c1.148 0 2.035.257 2.66.772.624.515.936 1.26.936 2.236 0 .665-.161 1.222-.482 1.671-.322.449-.77.794-1.344 1.036l2.236 4.15V13h-1.853l-1.996-3.835zm-1.928-1.388h1.778c.583 0 1.039-.147 1.367-.44.328-.295.492-.697.492-1.207 0-.533-.151-.946-.454-1.237-.303-.292-.756-.442-1.357-.452h-1.826v3.336zm12.907.78h-4.088v3.062h4.778V13h-6.507V3.047h6.46V4.44h-4.73V7.19h4.087v1.368zm8.812.881h-3.589v-1.34h3.59v1.34zm9.77.964c0-.387-.124-.707-.37-.96s-.656-.48-1.23-.684c-.574-.202-1.021-.39-1.34-.564-1.062-.57-1.593-1.412-1.593-2.529 0-.756.23-1.379.69-1.866.46-.488 1.085-.777 1.874-.868V1.44h1.093v1.503c.793.114 1.406.45 1.84 1.009.432.558.649 1.284.649 2.177h-1.655c0-.574-.128-1.027-.386-1.357-.257-.33-.607-.496-1.05-.496-.437 0-.778.119-1.025.356-.246.237-.369.576-.369 1.018 0 .397.122.715.366.954.244.24.657.466 1.24.68.584.214 1.042.413 1.375.595.332.182.613.39.84.625.228.235.404.505.527.81.123.306.185.664.185 1.074 0 .77-.236 1.394-.708 1.873-.472.478-1.13.76-1.972.847v1.333H127.5v-1.326c-.902-.1-1.596-.424-2.082-.97-.485-.547-.728-1.272-.728-2.174h1.661c0 .574.145 1.018.435 1.333.289.314.698.471 1.227.471.52 0 .915-.125 1.186-.376.27-.25.406-.583.406-.998zm12.223.035c0-.438-.154-.775-.462-1.012-.307-.237-.862-.476-1.664-.718-.802-.242-1.44-.51-1.914-.807-.907-.57-1.36-1.312-1.36-2.228 0-.802.326-1.463.98-1.983.654-.52 1.503-.779 2.547-.779.692 0 1.31.128 1.852.383a3.04 3.04 0 0 1 1.279 1.09c.31.472.464.995.464 1.57h-1.722c0-.52-.163-.927-.49-1.221-.325-.294-.79-.441-1.397-.441-.565 0-1.004.12-1.316.362-.312.242-.468.58-.468 1.012 0 .365.168.669.506.913.337.243.893.48 1.668.71.774.23 1.396.493 1.866.787.47.294.813.63 1.032 1.011.219.381.328.826.328 1.337 0 .83-.318 1.489-.953 1.979-.636.49-1.499.735-2.588.735-.72 0-1.382-.134-1.986-.4-.604-.267-1.073-.635-1.408-1.104-.335-.47-.502-1.016-.502-1.64h1.73c0 .564.186 1.002.56 1.312.373.31.909.465 1.606.465.602 0 1.054-.122 1.357-.366a1.18 1.18 0 0 0 .455-.967zm10.958 1.271c-.36.47-.859.825-1.497 1.066-.638.242-1.363.363-2.174.363-.834 0-1.572-.19-2.215-.568a3.78 3.78 0 0 1-1.487-1.623c-.348-.704-.53-1.526-.543-2.465v-.779c0-1.504.36-2.678 1.08-3.524.72-.845 1.725-1.268 3.015-1.268 1.107 0 1.987.274 2.638.82.652.547 1.044 1.336 1.176 2.366h-1.695c-.192-1.199-.887-1.798-2.085-1.798-.775 0-1.364.279-1.767.837-.403.559-.612 1.378-.626 2.458v.765c0 1.076.227 1.911.68 2.506.454.594 1.084.892 1.89.892.885 0 1.514-.2 1.887-.602V9.206h-2.05V7.894h3.773v3.814zM154.771 13V3.047h2.94c.879 0 1.66.196 2.34.588a4.009 4.009 0 0 1 1.583 1.668c.374.72.56 1.545.56 2.474v.5c0 .943-.187 1.772-.563 2.488a3.96 3.96 0 0 1-1.607 1.654c-.695.387-1.491.581-2.389.581h-2.864zm1.73-8.559v7.178h1.127c.907 0 1.603-.284 2.089-.85.485-.568.732-1.383.741-2.445v-.553c0-1.08-.234-1.905-.704-2.475-.47-.57-1.15-.855-2.044-.855h-1.21z"/>
        <path fill="#DA1841" stroke="#979797" d="M25.843 8.364v7.021H1.463V1.274h24.38v7.09z"/>
        <path fill="#DA1841" d="M1.463 8.364h24.38v-7.09H1.463z"/>
        <path fill="#FFF" d="M1.463 15.385h24.38V8.364H1.463zM8.777 4.817c0 1.466-1.219 2.63-2.685 2.63-1.482 0-2.67-1.164-2.67-2.63 0-1.467 1.188-2.625 2.67-2.625 1.466 0 2.685 1.158 2.685 2.625"/>
        <path fill="#DA1841" d="M9.609 4.817c0 1.341-1.139 2.502-2.528 2.502-1.392 0-2.53-1.16-2.53-2.502 0-1.403 1.138-2.503 2.53-2.503 1.39 0 2.528 1.1 2.528 2.503"/>
        <path fill="#FFF" d="M6.432 4.88l-.37-.245-.374.245.142-.431-.355-.303h.463l.124-.427.139.427h.429l-.352.303zM9.272 4.88l-.358-.245-.368.245.155-.431-.39-.303h.467l.136-.427.142.427h.432l-.355.303zM7.852 3.841l-.37-.312-.355.312.138-.492-.355-.238h.433l.138-.431.14.43h.447l-.37.24zM6.973 6.53l-.389-.245-.355.244.124-.43-.34-.303h.435l.136-.43.142.43h.463l-.355.303zM8.747 6.53l-.37-.245-.355.244.123-.43-.355-.303h.432l.155-.43.12.43h.463l-.352.303z"/>
    </g>
</svg>
