<?xml version="1.0" encoding="UTF-8"?>
<svg width="112px" height="38px" viewBox="0 0 112 38" version="1.1" xmlns="http://www.w3.org/2000/svg" xmlns:xlink="http://www.w3.org/1999/xlink">
    <title>Group 5</title>
    <g id="Page-1" stroke="none" stroke-width="1" fill="none" fill-rule="evenodd">
        <g id="375---Footer---Supre-updates" transform="translate(-12.000000, -343.000000)">
            <g id="Group-5" transform="translate(13.000000, 344.000000)">
                <path d="M110.446418,31.2454625 C110.446418,33.9412707 108.261234,36.1281482 105.565426,36.1281482 L4.8822623,36.1281482 C2.18624242,36.1281482 6.01692136e-14,33.9412707 6.01692136e-14,31.2454625 L6.01692136e-14,4.8820506 C6.01692136e-14,2.18624242 2.18624242,-6.01692136e-15 4.8822623,-6.01692136e-15 L105.565426,-6.01692136e-15 C108.261234,-6.01692136e-15 110.446418,2.18624242 110.446418,4.8820506 L110.446418,31.2454625" id="Fill-135" stroke="#000000" stroke-width="0.81675" fill="#F5F5F5"></path>
                <path d="M28.8013676,23.8805756 C28.2166478,25.1766128 27.9367782,25.7549816 27.1841791,26.9002872 C26.133504,28.4996928 24.6532864,30.490958 22.8191038,30.5076825 C21.1887897,30.5227133 20.7702557,29.4466341 18.5581857,29.4589127 C16.3461156,29.4709797 15.8841827,30.5265239 14.253657,30.5118594 C12.4194744,30.4947687 11.0165279,28.6963636 9.96606452,27.0975931 C7.02870482,22.6262436 6.7217375,17.378796 8.53326809,14.5892041 C9.82083722,12.6066186 11.8510556,11.4460704 13.7610274,11.4460704 C15.7052949,11.4460704 16.9274482,12.5124114 18.5351102,12.5124114 C20.0942925,12.5124114 21.0448327,11.4443768 23.2924685,11.4443768 C24.9915856,11.4443768 26.791896,12.3693011 28.0748077,13.9695535 C23.8718958,16.2726552 24.5544218,22.2758775 28.8013676,23.8805756" id="Fill-136" fill="#000000"></path>
                <path d="M21.5874239,9.6582504 C22.4035335,8.61011577 23.0242426,7.12926308 22.7992038,5.61644345 C21.4654837,5.70832194 19.9043961,6.55703366 18.9932324,7.66359792 C18.1661143,8.66833371 17.4835883,10.1582896 17.7494855,11.6061168 C19.2057809,11.6512093 20.7124611,10.7813274 21.5874239,9.6582504" id="Fill-137" fill="#000000"></path>
                <path d="M38.7481673,16.5580289 C38.890219,17.1107818 39.043491,17.6849166 39.2405852,18.3052022 L40.3744589,21.5891175 L37.1472798,21.5891175 L38.2652759,18.2838204 C38.4356957,17.7480036 38.5974357,17.1689998 38.7481673,16.5580289 Z M37.7497825,14.5214596 L33.5422132,26.90685 L35.4689095,26.90685 L36.7251468,23.1038424 L40.7991324,23.1038424 L42.0909355,26.90685 L44.0709806,26.90685 L39.8452049,14.5214596 L37.7497825,14.5214596 L37.7497825,14.5214596 Z" id="Fill-138" fill="#000000"></path>
                <path d="M49.048932,19.283687 C50.7194693,19.283687 51.4669877,20.831014 51.4669877,22.3643687 C51.4669877,24.3420851 50.5130603,25.5708012 48.9778003,25.5708012 C47.9296656,25.5708012 47.0229477,24.8573668 46.770176,23.8318842 C46.7267772,23.673108 46.7037017,23.4626766 46.7037017,23.2253591 L46.7037017,21.7184671 C46.7037017,21.5819196 46.7341867,21.416369 46.7631898,21.2558991 C46.7725047,21.2046674 46.7826664,21.1534356 46.7900759,21.1036857 C47.069522,20.0316288 47.9971985,19.283687 49.048932,19.283687 Z M49.515734,17.732126 C48.2393851,17.732126 47.2172898,18.2249673 46.5366691,19.1613235 L46.4619385,17.9294319 L44.7480023,17.9294319 L44.758164,18.0869379 C44.8087607,18.8543562 44.8297191,19.6990456 44.8297191,20.911884 L44.8297191,30.458356 L46.7037017,30.458356 L46.7037017,26.0033075 C47.2850343,26.698959 48.2133458,27.1039441 49.2650793,27.1039441 C50.3604234,27.1039441 51.3693932,26.6750367 52.1046329,25.8968216 C52.9254,25.0292685 53.3583298,23.782346 53.3583298,22.2923902 C53.3583298,20.9760296 52.9823477,19.8377101 52.2697601,19.0014888 C51.57178,18.1828387 50.594142,17.732126 49.515734,17.732126 L49.515734,17.732126 Z" id="Fill-139" fill="#000000"></path>
                <path d="M58.6987143,19.283687 C60.3684049,19.283687 61.1161349,20.831014 61.1161349,22.3643687 C61.1161349,24.3420851 60.1615724,25.5708012 58.6271592,25.5708012 C57.579448,25.5708012 56.6718832,24.8573668 56.4195349,23.8318842 C56.3761361,23.673108 56.353484,23.4626766 56.353484,23.2253591 L56.353484,21.7184671 C56.353484,21.5810728 56.3835456,21.414887 56.4131839,21.2542055 C56.4224987,21.2038206 56.4318136,21.1534356 56.4402817,21.1036857 C56.7186693,20.0316288 57.6467691,19.283687 58.6987143,19.283687 Z M59.165093,17.732126 C57.8891674,17.732126 56.8670721,18.2249673 56.1858163,19.1613235 L56.1110857,17.9294319 L54.3977846,17.9294319 L54.4073112,18.0869379 C54.4581196,18.855203 54.4795014,19.6990456 54.4795014,20.911884 L54.4795014,30.458356 L56.353484,30.458356 L56.353484,26.0033075 C56.9348166,26.698959 57.862493,27.1039441 58.9142266,27.1039441 C60.0093589,27.1039441 61.0185405,26.6750367 61.7550503,25.8968216 C62.5745472,25.0292685 63.0079004,23.782346 63.0079004,22.2923902 C63.0079004,20.9760296 62.6312833,19.8377101 61.9186957,19.0014888 C61.2211389,18.1828387 60.2435009,17.732126 59.165093,17.732126 L59.165093,17.732126 Z" id="Fill-140" fill="#000000"></path>
                <path d="M71.2538894,19.7695422 C69.5050225,19.0920971 68.9446484,18.5596676 68.9446484,17.5754668 C68.9446484,16.7468668 69.6030403,15.9112806 71.0745782,15.9112806 C72.2884751,15.9112806 73.0649966,16.3334135 73.2743695,16.4633983 L73.4331457,16.5614162 L73.9619763,14.9975764 L73.8573957,14.9363947 C73.5434422,14.752426 72.6487913,14.3243654 71.1285621,14.3243654 C68.7388744,14.3243654 67.069819,15.7351448 67.069819,17.7543547 C67.069819,19.3827634 68.1149898,20.5210829 70.3588151,21.3369809 C71.9491175,21.9312273 72.5410352,22.5400811 72.5410352,23.5839816 C72.5410352,24.7654883 71.6277544,25.4986109 70.1591804,25.4986109 C69.2025009,25.4986109 68.2180885,25.2197999 67.4582914,24.7328862 L67.2957046,24.628729 L66.7927016,26.228558 L66.8852152,26.2897398 C67.592722,26.7622578 68.9241133,27.1039441 70.0520594,27.1039441 C73.2726759,27.1039441 74.4145943,25.1402001 74.4145943,23.4584426 C74.4145943,21.7248182 73.4991966,20.6555134 71.2538894,19.7695422" id="Fill-141" fill="#000000"></path>
                <path d="M77.7878476,15.7956915 L75.9498543,16.37279 L75.9498543,17.9294319 L74.6044906,17.9294319 L74.6044906,19.427009 L75.9498543,19.427009 L75.9498543,24.0145827 C75.9498543,25.1236874 76.1619793,25.900844 76.5987197,26.3922034 C77.0174655,26.8511724 77.66125,27.1039441 78.4117322,27.1039441 C79.1200858,27.1039441 79.6233005,26.9640094 79.8601946,26.8801756 L79.9651986,26.8431278 L79.8754371,25.3427985 L79.6957024,25.397841 C79.4585966,25.4706663 79.2155632,25.4986109 78.8239152,25.4986109 C78.0979904,25.4986109 77.7878476,25.0392184 77.7878476,23.9605988 L77.7878476,19.427009 L80.0483973,19.427009 L80.0483973,17.9294319 L77.7878476,17.9294319 L77.7878476,15.7956915" id="Fill-142" fill="#000000"></path>
                <path d="M84.6378763,19.2117085 C86.3236561,19.2117085 87.0910744,20.8549363 87.0910744,22.3825751 C87.0910744,24.2610034 86.0437866,25.6245734 84.6023104,25.6245734 L84.5841041,25.6245734 C83.1631629,25.6245734 82.1313293,24.2838671 82.1313293,22.4367707 C82.1313293,20.8316491 82.9067923,19.2117085 84.6378763,19.2117085 Z M84.6920719,17.732126 C82.0701476,17.732126 80.2393521,19.6893073 80.2393521,22.4896961 C80.2393521,25.2066744 82.0110828,27.1039441 84.5485382,27.1039441 L84.5658977,27.1039441 C86.71107,27.1039441 89.0188292,25.6095426 89.0188292,22.3283795 C89.0188292,20.9944477 88.6060111,19.8485069 87.8246205,19.0139792 C87.0385724,18.1758526 85.9548719,17.732126 84.6920719,17.732126 L84.6920719,17.732126 Z" id="Fill-143" fill="#000000"></path>
                <path d="M94.7582713,17.8193471 L94.6458577,17.7907674 C94.4807305,17.7494855 94.3460882,17.732126 94.1799025,17.732126 C93.1995124,17.732126 92.3198922,18.3094363 91.8304381,19.2407116 L91.7753957,17.9294319 L90.0938499,17.9294319 L90.1046467,18.0869379 C90.1546083,18.8287403 90.175355,19.6615744 90.175355,20.7852865 L90.1579955,26.90685 L92.0317664,26.90685 L92.0317664,22.1312853 C92.0317664,21.871104 92.0495493,21.6253184 92.0834215,21.4047254 C92.2946997,20.2577261 93.0688925,19.5163471 94.0549985,19.5163471 C94.2468002,19.5163471 94.3977434,19.532013 94.5577898,19.5478906 L94.7582713,19.5684257 L94.7582713,17.8193471" id="Fill-144" fill="#000000"></path>
                <path d="M98.8464409,19.1401534 C99.4169767,19.1401534 99.8799681,19.3167125 100.222078,19.6647499 C100.76107,20.2134805 100.855489,21.0215455 100.867344,21.4093828 L96.5937241,21.4093828 C96.7677429,20.3271642 97.4445529,19.1401534 98.8464409,19.1401534 Z M98.9711331,17.7143431 C96.4766532,17.7143431 94.734349,19.7077253 94.734349,22.5616746 C94.734349,25.3097731 96.46755,27.0861612 99.1506561,27.0861612 C100.561436,27.0861612 101.543096,26.7764418 102.117442,26.5171073 L102.230279,26.4660872 L101.870175,25.0699152 L101.713727,25.1327905 C101.203103,25.3406815 100.524176,25.5528065 99.3661683,25.5528065 C98.5519639,25.5528065 96.6743824,25.2841572 96.5594285,22.8358282 L102.607743,22.8540345 L102.632089,22.7342114 C102.670195,22.5438917 102.688401,22.2873093 102.688401,21.9521857 C102.688401,19.9973331 101.714998,17.7143431 98.9711331,17.7143431 L98.9711331,17.7143431 Z" id="Fill-145" fill="#000000"></path>
                <path d="M34.3926185,11.2532102 C34.6051669,11.2879293 34.914463,11.2879293 35.2432356,11.2879293 C37.0405821,11.2963974 38.0165265,10.3835401 38.0165265,8.80064721 C38.0262648,7.40045283 37.1563829,6.53925072 35.3785129,6.53925072 C34.9438895,6.53925072 34.6149052,6.57439319 34.3926185,6.61758031 L34.3926185,11.2532102 Z M33.5422132,6.06101681 C34.0642694,5.99136698 34.6731232,5.93928839 35.3395598,5.93928839 C36.5477408,5.93928839 37.4078844,6.18295693 37.9779968,6.66140255 C38.5673741,7.13942476 38.9058849,7.82639645 38.9058849,8.77460792 C38.9058849,9.73128745 38.5673741,10.5137366 37.9684703,11.0531522 C37.3498782,11.601036 36.344719,11.8967831 35.0789551,11.8967831 C34.4701013,11.8967831 33.97726,11.8794236 33.5422132,11.8271333 L33.5422132,6.06101681 L33.5422132,6.06101681 Z" id="Fill-146" fill="#000000"></path>
                <path d="M41.948672,11.3660472 C42.760336,11.3660472 43.3694015,10.6790755 43.3694015,9.72239598 C43.3694015,9.00917329 42.9730961,8.11346382 41.9681486,8.11346382 C40.972516,8.11346382 40.5376809,8.94841493 40.5376809,9.74864698 C40.5376809,10.6703957 41.1175316,11.3660472 41.9389338,11.3660472 L41.948672,11.3660472 Z M41.9196689,11.9401819 C40.6632199,11.9401819 39.677749,11.1054425 39.677749,9.77489798 C39.677749,8.36581213 40.7116996,7.53954078 41.9967283,7.53954078 C43.3403984,7.53954078 44.2483865,8.41767902 44.2483865,9.69635668 C44.2483865,11.26189 43.0406289,11.9401819 41.9296189,11.9401819 L41.9196689,11.9401819 L41.9196689,11.9401819 Z" id="Fill-147" fill="#000000"></path>
                <path d="M45.5939619,7.6350182 L46.2218688,9.76621821 C46.3474079,10.2355607 46.4733703,10.6790755 46.560168,11.1141223 L46.5891711,11.1141223 C46.6954453,10.6877553 46.8499875,10.2355607 47.0047414,9.77489798 L47.7681373,7.6350182 L48.483477,7.6350182 L49.2083433,9.73975551 C49.3819386,10.2355607 49.5174276,10.6877553 49.6237018,11.1141223 L49.652705,11.1141223 C49.729976,10.6877553 49.8557268,10.2442404 50.010269,9.74864698 L50.6767056,7.6350182 L51.5177961,7.6350182 L50.010269,11.8444928 L49.2371347,11.8444928 L48.5222184,9.83565634 C48.357938,9.35721072 48.222449,8.93973516 48.1062248,8.44393002 L48.0871716,8.44393002 C47.9711592,8.94841493 47.8263553,9.39192978 47.6616514,9.8443361 L46.9082054,11.8444928 L46.1350712,11.8444928 L44.7238683,7.6350182 L45.5939619,7.6350182" id="Fill-148" fill="#000000"></path>
                <path d="M52.3688365,8.77460792 C52.3688365,8.33088136 52.3590982,7.98326734 52.3298834,7.6350182 L53.0839645,7.6350182 L53.1320208,8.3224133 L53.1514973,8.3224133 C53.3835223,7.93097704 53.9244199,7.53954078 54.6975541,7.53954078 C55.3449376,7.53954078 56.3498851,7.88736651 56.3498851,9.33117142 L56.3498851,11.8444928 L55.5001149,11.8444928 L55.5001149,9.41796908 C55.5001149,8.73967715 55.2191868,8.16596582 54.4172612,8.16596582 C53.8666253,8.16596582 53.4313668,8.52247131 53.2772481,8.94841493 C53.2385067,9.04410405 53.2190301,9.183192 53.2190301,9.30513213 L53.2190301,11.8444928 L52.3688365,11.8444928 L52.3688365,8.77460792" id="Fill-149" fill="#000000"></path>
                <polygon id="Fill-150" fill="#000000" points="57.7320848 11.8444928 58.5824902 11.8444928 58.5824902 5.66979225 57.7320848 5.66979225"></polygon>
                <path d="M61.9258935,11.3660472 C62.7377692,11.3660472 63.3468347,10.6790755 63.3468347,9.72239598 C63.3468347,9.00917329 62.9505293,8.11346382 61.9457935,8.11346382 C60.9501608,8.11346382 60.5151141,8.94841493 60.5151141,9.74864698 C60.5151141,10.6703957 61.0949647,11.3660472 61.9165787,11.3660472 L61.9258935,11.3660472 Z M61.8973138,11.9401819 C60.6412882,11.9401819 59.6556056,11.1054425 59.6556056,9.77489798 C59.6556056,8.36581213 60.6889211,7.53954078 61.9747966,7.53954078 C63.3176198,7.53954078 64.2260314,8.41767902 64.2260314,9.69635668 C64.2260314,11.26189 63.0180621,11.9401819 61.9068404,11.9401819 L61.8973138,11.9401819 L61.8973138,11.9401819 Z" id="Fill-151" fill="#000000"></path>
                <path d="M67.7637768,9.69635668 C66.8358887,9.67899715 65.7826733,9.82697657 65.7826733,10.6443564 C65.7826733,11.1488414 66.1497638,11.3749387 66.5750724,11.3749387 C67.1934527,11.3749387 67.5897581,11.0271129 67.7248238,10.6703957 C67.7542503,10.5922779 67.7637768,10.5050568 67.7637768,10.4269389 L67.7637768,9.69635668 Z M68.5944939,10.8357347 C68.5944939,11.20092 68.6139705,11.5572137 68.6622384,11.8444928 L67.8986308,11.8444928 L67.8213597,11.3141803 L67.79278,11.3141803 C67.5414902,11.6446465 67.0289606,11.9401819 66.362524,11.9401819 C65.4157944,11.9401819 64.9322679,11.3402196 64.9322679,10.7311541 C64.9322679,9.71371621 65.9370037,9.15715271 67.7440886,9.16583247 L67.7440886,9.07882312 C67.7440886,8.73120909 67.6382378,8.09631599 66.6813466,8.10499576 C66.2363498,8.10499576 65.7826733,8.21762101 65.4541124,8.41767902 L65.2606171,7.90493774 C65.6471842,7.6875202 66.2172967,7.53954078 66.8070973,7.53954078 C68.2468799,7.53954078 68.5944939,8.41767902 68.5944939,9.2617333 L68.5944939,10.8357347 L68.5944939,10.8357347 Z" id="Fill-152" fill="#000000"></path>
                <path d="M73.1465017,9.34853095 C73.1465017,9.24416207 73.1369752,9.12243365 73.1075486,9.01806476 C72.982433,8.53983084 72.5183831,8.13971482 71.8807379,8.13971482 C71.0011177,8.13971482 70.4790616,8.83536628 70.4790616,9.75753845 C70.4790616,10.6183172 70.9530614,11.3224367 71.8612613,11.3224367 C72.4315854,11.3224367 72.9534299,10.9748226 73.1075486,10.4095794 C73.1369752,10.3052105 73.1465017,10.2006299 73.1465017,10.0791132 L73.1465017,9.34853095 Z M73.9966954,5.66979225 L73.9966954,10.7571934 C73.9966954,11.1312701 74.0070687,11.5572137 74.0354367,11.8444928 L73.2722525,11.8444928 L73.2337228,11.1141223 L73.2142462,11.1141223 C72.9534299,11.5836764 72.392844,11.9401819 71.6294481,11.9401819 C70.4985381,11.9401819 69.6191297,11.0794032 69.6191297,9.80072557 C69.6093914,8.39163972 70.5857592,7.53954078 71.716034,7.53954078 C72.4413237,7.53954078 72.9244267,7.84417938 73.1274486,8.17443388 L73.1465017,8.17443388 L73.1465017,5.66979225 L73.9966954,5.66979225 L73.9966954,5.66979225 Z" id="Fill-153" fill="#000000"></path>
                <path d="M79.3895819,11.3660472 C80.2012458,11.3660472 80.8098879,10.6790755 80.8098879,9.72239598 C80.8098879,9.00917329 80.4142177,8.11346382 79.4090585,8.11346382 C78.4134258,8.11346382 77.9788024,8.94841493 77.9788024,9.74864698 C77.9788024,10.6703957 78.5586531,11.3660472 79.3796319,11.3660472 L79.3895819,11.3660472 Z M79.3603671,11.9401819 C78.1041298,11.9401819 77.1184471,11.1054425 77.1184471,9.77489798 C77.1184471,8.36581213 78.1530329,7.53954078 79.4376382,7.53954078 C80.7815199,7.53954078 81.6895081,8.41767902 81.6895081,9.69635668 C81.6895081,11.26189 80.4813271,11.9401819 79.3705288,11.9401819 L79.3603671,11.9401819 L79.3603671,11.9401819 Z" id="Fill-154" fill="#000000"></path>
                <path d="M82.7628352,8.77460792 C82.7628352,8.33088136 82.7528852,7.98326734 82.7238821,7.6350182 L83.4777515,7.6350182 L83.5264429,8.3224133 L83.545496,8.3224133 C83.777521,7.93097704 84.3184186,7.53954078 85.0915528,7.53954078 C85.739148,7.53954078 86.7443072,7.88736651 86.7443072,9.33117142 L86.7443072,11.8444928 L85.8936902,11.8444928 L85.8936902,9.41796908 C85.8936902,8.73967715 85.6138207,8.16596582 84.8112599,8.16596582 C84.2608357,8.16596582 83.8253655,8.52247131 83.6708234,8.94841493 C83.6322937,9.04410405 83.6130288,9.183192 83.6130288,9.30513213 L83.6130288,11.8444928 L82.7628352,11.8444928 L82.7628352,8.77460792" id="Fill-155" fill="#000000"></path>
                <path d="M91.1993557,6.62647178 L91.1993557,7.6350182 L92.4166399,7.6350182 L92.4166399,8.21762101 L91.1993557,8.21762101 L91.1993557,10.487909 C91.1993557,11.0095417 91.3640595,11.3052888 91.8374243,11.3052888 C92.0690258,11.3052888 92.2047266,11.2879293 92.3302656,11.2532102 L92.3687953,11.8358131 C92.2047266,11.8878916 91.9436985,11.9401819 91.6149259,11.9401819 C91.2188322,11.9401819 90.8995862,11.8184535 90.6965644,11.6186072 C90.4647511,11.3836184 90.3684269,11.0095417 90.3684269,10.5137366 L90.3684269,8.21762101 L89.6435606,8.21762101 L89.6435606,7.6350182 L90.3684269,7.6350182 L90.3684269,6.86124886 L91.1993557,6.62647178" id="Fill-156" fill="#000000"></path>
                <path d="M93.3739545,5.66979225 L94.2241481,5.66979225 L94.2241481,8.2961623 L94.2438364,8.2961623 C94.3786903,8.07874476 94.5912387,7.87889845 94.8529019,7.75695833 C95.10398,7.61808208 95.4029026,7.53954078 95.7225721,7.53954078 C96.3502673,7.53954078 97.3554265,7.88736651 97.3554265,9.33985119 L97.3554265,11.8444928 L96.5052329,11.8444928 L96.5052329,9.42686055 C96.5052329,8.73967715 96.2249399,8.17443388 95.4228026,8.17443388 C94.871955,8.17443388 94.4468582,8.52247131 94.2823661,8.93973516 C94.2338864,9.04410405 94.2241481,9.15715271 94.2241481,9.30513213 L94.2241481,11.8444928 L93.3739545,11.8444928 L93.3739545,5.66979225" id="Fill-157" fill="#000000"></path>
                <path d="M101.704836,9.32249166 C101.713727,8.84404604 101.482337,8.07874476 100.534973,8.07874476 C99.6650909,8.07874476 99.2977887,8.79196745 99.2304676,9.32249166 L101.704836,9.32249166 Z M99.2205176,9.8703754 C99.2404175,10.9051728 99.9652838,11.3315398 100.815266,11.3315398 C101.423908,11.3315398 101.80116,11.235639 102.110668,11.1225904 L102.265422,11.6617943 C101.965229,11.7835228 101.443384,11.9315022 100.699465,11.9315022 C99.2689973,11.9315022 98.3993271,11.0703001 98.3993271,9.80961704 C98.3993271,8.53115108 99.2404175,7.53086102 100.602294,7.53086102 C102.129721,7.53086102 102.525391,8.73967715 102.525391,9.5138699 C102.525391,9.67031739 102.5165,9.79225751 102.497023,9.87905516 L99.2205176,9.8703754 L99.2205176,9.8703754 Z" id="Fill-158" fill="#000000"></path>
            </g>
        </g>
    </g>
</svg>