<?xml version="1.0" encoding="UTF-8" standalone="no"?>
<svg width="143px" height="27px" viewBox="0 0 143 27" version="1.1" xmlns="http://www.w3.org/2000/svg" xmlns:xlink="http://www.w3.org/1999/xlink">
    <!-- Generator: Sketch 50.2 (55047) - http://www.bohemiancoding.com/sketch -->
    <title>CottonOn-Logo-375px</title>
    <desc>Created with Sketch.</desc>
    <defs></defs>
    <g id="New-Logo---all-breakpoints" stroke="none" stroke-width="1" fill="none" fill-rule="evenodd">
        <g id="Mobile-Portrait---Homepage-Copy-2" transform="translate(-99.000000, -52.000000)">
            <g id="CottonOn-Logo-375px" transform="translate(99.000000, 52.000000)">
                <path d="M104.7,10.1531981 C103.208814,10.1531981 102,8.9550702 102,7.47706708 C102,5.99812793 103.208814,4.8 104.7,4.8 C106.19213,4.8 107.4,5.99812793 107.4,7.47706708 C107.4,8.9550702 106.19213,10.1531981 104.7,10.1531981 M104.7,22.8 C106.19213,22.8 107.4,21.600936 107.4,20.1229329 C107.4,18.6439938 106.19213,17.4458658 104.7,17.4458658 C103.208814,17.4458658 102,18.6439938 102,20.1229329 C102,21.600936 103.208814,22.8 104.7,22.8" id="Fill-1" fill="#1D1D1B"></path>
                <path d="M14.3572253,20.2495335 C14.3572253,24.1285329 11.9634262,27 7.40973168,27 C2.8170532,27 0,23.8962408 0,19.9006288 L0,7.09843826 C0,3.10282634 2.8170532,0 7.40973168,0 C11.9634262,0 14.3572253,2.87053417 14.3572253,6.74953355 L14.3572253,9.8924746 L10.0727055,9.8924746 L10.0727055,6.78871536 C10.0727055,5.2746182 9.22434091,4.22790408 7.48677136,4.22790408 C5.75013,4.22790408 4.86278145,5.2746182 4.86278145,6.71035174 L4.86278145,20.2877825 C4.86278145,21.723516 5.75013,22.771163 7.48677136,22.771163 C9.22434091,22.771163 10.0727055,21.723516 10.0727055,20.2112846 L10.0727055,17.1065925 L14.3572253,17.1065925 L14.3572253,20.2495335 Z M31.8303806,19.9388778 C31.8303806,24.0520351 29.0523114,27 24.5357444,27 C20.0581613,27 17.2411081,24.0520351 17.2411081,19.9388778 L17.2411081,7.05925644 C17.2411081,2.98621381 20.0581613,0.0391818119 24.5357444,0.0391818119 C29.0523114,0.0391818119 31.8303806,2.98621381 31.8303806,7.05925644 L31.8303806,19.9388778 Z M27.0056549,20.2495335 L27.0056549,6.74953355 C27.0056549,5.23730219 26.1183064,4.22790408 24.5357444,4.22790408 C22.9921663,4.22790408 22.1048177,5.23730219 22.1048177,6.74953355 L22.1048177,20.2495335 C22.1048177,21.7626978 22.9921663,22.771163 24.5357444,22.771163 C26.1183064,22.771163 27.0056549,21.7626978 27.0056549,20.2495335 L27.0056549,20.2495335 Z M48.3075893,4.84828277 L48.3075893,0.582129777 L34.0264755,0.582129777 L34.0264755,4.84828277 L38.7732333,4.84828277 L38.7732333,26.4178702 L43.597959,26.4178702 L43.597959,4.84828277 L48.3075893,4.84828277 Z M64.784798,4.84828277 L64.784798,0.582129777 L50.5036842,0.582129777 L50.5036842,4.84828277 L55.2522984,4.84828277 L55.2522984,26.4178702 L60.0760959,26.4178702 L60.0760959,4.84828277 L64.784798,4.84828277 Z M81.5710935,19.9388778 C81.5710935,24.0520351 78.7920961,27 74.2755291,27 C69.797946,27 66.981821,24.0520351 66.981821,19.9388778 L66.981821,7.05925644 C66.981821,2.98621381 69.797946,0.0391818119 74.2755291,0.0391818119 C78.7920961,0.0391818119 81.5710935,2.98621381 81.5710935,7.05925644 L81.5710935,19.9388778 Z M76.7463678,20.2495335 L76.7463678,6.74953355 C76.7463678,5.23730219 75.8590193,4.22790408 74.2755291,4.22790408 C72.731951,4.22790408 71.8446025,5.23730219 71.8446025,6.74953355 L71.8446025,20.2495335 C71.8446025,21.7626978 72.731951,22.771163 74.2755291,22.771163 C75.8590193,22.771163 76.7463678,21.7626978 76.7463678,20.2495335 L76.7463678,20.2495335 Z M99.3524076,26.4178702 L99.3524076,0.582129777 L95.029832,0.582129777 L95.029832,15.9050169 L93.3312464,11.7918596 L88.5835604,0.582129777 L84.45312,0.582129777 L84.45312,26.4178702 L88.8545915,26.4178702 L88.8545915,11.2890263 L90.6673444,15.4003179 L95.6470776,26.4178702 L99.3524076,26.4178702 Z M125.018686,19.9388778 C125.018686,24.0520351 122.239689,27 117.723122,27 C113.245538,27 110.429413,24.0520351 110.429413,19.9388778 L110.429413,7.05925644 C110.429413,2.98621381 113.245538,0.0391818119 117.723122,0.0391818119 C122.239689,0.0391818119 125.018686,2.98621381 125.018686,7.05925644 L125.018686,19.9388778 Z M120.193032,20.2495335 L120.193032,6.74953355 C120.193032,5.23730219 119.305684,4.22790408 117.723122,4.22790408 C116.179543,4.22790408 115.292195,5.23730219 115.292195,6.74953355 L115.292195,20.2495335 C115.292195,21.7626978 116.179543,22.771163 117.723122,22.771163 C119.305684,22.771163 120.193032,21.7626978 120.193032,20.2495335 L120.193032,20.2495335 Z M142.8,26.4178702 L142.8,0.582129777 L138.477424,0.582129777 L138.477424,15.9050169 L136.778839,11.7918596 L132.031153,0.582129777 L127.900712,0.582129777 L127.900712,26.4178702 L132.301256,26.4178702 L132.301256,11.2890263 L134.114937,15.4003179 L139.09467,26.4178702 L142.8,26.4178702 Z" id="Fill-3" fill="#E30E2E"></path>
            </g>
        </g>
    </g>
</svg>