<svg xmlns="http://www.w3.org/2000/svg" width="24" height="18" viewBox="0 0 36 23">
    <path fill="#333434" fill-rule="evenodd" d="M1.06 15.26V0h20.388v19.163h-9.953c-.026 1.266-.576 2.266-1.532 3.03-.742.592-1.626.82-2.596.796-1.828-.046-3.633-1.526-3.767-3.809H0v-3.92h1.06zm6.496 1.396c-1.34.003-2.434 1.068-2.437 2.378-.003 1.318 1.064 2.37 2.42 2.388 1.352.019 2.46-1.06 2.458-2.393-.002-1.305-1.103-2.374-2.441-2.373zm28.261-5.5c.09.12.174.28.175.422.01 2.511.008 5.022.008 7.598h-4.144c-.17 2.42-2.08 3.841-4.01 3.824-2.045-.019-3.828-1.663-3.891-3.802h-1.739V2.119h.369c2.045 0 4.09.005 6.135-.007.26 0 .413.077.565.28 2.173 2.924 4.356 5.84 6.532 8.764zm-11.775-.53h8.918c-1.614-2.226-3.179-4.392-4.757-6.55-.074-.1-.267-.163-.407-.166-.779-.016-1.558-.01-2.339-.01h-1.415v6.727zm3.848 10.796c1.344.005 2.438-1.057 2.443-2.37.005-1.321-1.118-2.415-2.46-2.395-1.353.02-2.423 1.079-2.421 2.394 0 1.31 1.09 2.369 2.438 2.371z"/>
</svg>
