<svg xmlns="http://www.w3.org/2000/svg" xmlns:xlink="http://www.w3.org/1999/xlink" width="188" height="16" viewBox="0 0 188 16">
    <defs>
        <path id="a" d="M24.675 14.147H.009V.033h24.666z"/>
    </defs>
    <g fill="none" fill-rule="evenodd">
        <path fill="#333434" d="M43.292 3.047v6.651c0 1.058-.338 1.895-1.015 2.512-.677.618-1.578.927-2.704.927-1.14 0-2.044-.304-2.714-.913-.67-.608-1.005-1.453-1.005-2.533V3.047h1.723v6.658c0 .665.169 1.174.506 1.524.337.351.834.527 1.49.527 1.331 0 1.996-.702 1.996-2.106V3.047h1.723zM53.116 13h-1.73L46.95 5.938V13h-1.73V3.047h1.73l4.45 7.089v-7.09h1.716V13zm3.951 0h-1.723V3.047h1.723V13zm9.202-8.559h-3.104V13h-1.716V4.441h-3.076V3.047h7.896V4.44zm7.205 4.116h-4.088v3.062h4.778V13h-6.507V3.047h6.46V4.44h-4.73V7.19h4.087v1.368zM75.654 13V3.047h2.94c.88 0 1.66.196 2.342.588a4.009 4.009 0 0 1 1.582 1.668c.374.72.56 1.545.56 2.474v.5c0 .943-.187 1.772-.563 2.488a3.96 3.96 0 0 1-1.607 1.654c-.695.387-1.491.581-2.389.581h-2.864zm1.73-8.559v7.178h1.128c.907 0 1.603-.284 2.089-.85.485-.568.732-1.383.741-2.445v-.553c0-1.08-.234-1.905-.704-2.475-.47-.57-1.15-.855-2.044-.855h-1.21zm16.27 5.996c0-.438-.153-.775-.46-1.012-.308-.237-.863-.476-1.665-.718s-1.44-.51-1.914-.807c-.907-.57-1.36-1.312-1.36-2.228 0-.802.326-1.463.98-1.983.654-.52 1.503-.779 2.547-.779.692 0 1.31.128 1.852.383a3.04 3.04 0 0 1 1.278 1.09c.31.472.465.995.465 1.57h-1.722c0-.52-.163-.927-.49-1.221-.325-.294-.791-.441-1.397-.441-.565 0-1.004.12-1.316.362-.312.242-.468.58-.468 1.012 0 .365.168.669.506.913.337.243.893.48 1.668.71.774.23 1.396.493 1.866.787.47.294.813.63 1.032 1.011.219.381.328.826.328 1.337 0 .83-.318 1.489-.954 1.979-.635.49-1.498.735-2.587.735-.72 0-1.382-.134-1.986-.4-.604-.267-1.073-.635-1.408-1.104-.335-.47-.502-1.016-.502-1.64h1.73c0 .564.186 1.002.56 1.312.373.31.909.465 1.606.465.602 0 1.054-.122 1.357-.366a1.18 1.18 0 0 0 .455-.967zm10.521-5.996h-3.103V13h-1.716V4.441H96.28V3.047h7.895V4.44zm6.14 6.242h-3.856L105.652 13h-1.798l3.76-9.953h1.552L112.933 13h-1.805l-.814-2.317zm-3.37-1.395h2.884l-1.442-4.129-1.443 4.13zm13.569-4.847h-3.104V13h-1.715V4.441h-3.077V3.047h7.896V4.44zm7.205 4.116h-4.088v3.062h4.779V13h-6.508V3.047h6.46V4.44h-4.73V7.19h4.087v1.368zm7.383 1.88c0-.438-.153-.775-.46-1.012-.309-.237-.863-.476-1.665-.718-.803-.242-1.44-.51-1.915-.807-.906-.57-1.36-1.312-1.36-2.228 0-.802.327-1.463.981-1.983.654-.52 1.503-.779 2.546-.779.693 0 1.31.128 1.853.383a3.04 3.04 0 0 1 1.278 1.09c.31.472.465.995.465 1.57h-1.723c0-.52-.162-.927-.488-1.221-.326-.294-.792-.441-1.398-.441-.565 0-1.004.12-1.316.362-.312.242-.468.58-.468 1.012 0 .365.168.669.505.913.338.243.894.48 1.668.71.775.23 1.397.493 1.867.787.469.294.813.63 1.032 1.011.219.381.328.826.328 1.337 0 .83-.318 1.489-.954 1.979-.635.49-1.498.735-2.587.735-.72 0-1.382-.134-1.986-.4-.604-.267-1.073-.635-1.408-1.104-.335-.47-.503-1.016-.503-1.64h1.73c0 .564.187 1.002.56 1.312.374.31.91.465 1.607.465.602 0 1.054-.122 1.357-.366a1.18 1.18 0 0 0 .454-.967zm9.961-.999h-3.589v-1.34h3.59v1.34zm9.77.964c0-.387-.124-.707-.37-.96s-.656-.48-1.23-.684c-.575-.202-1.021-.39-1.34-.564-1.062-.57-1.593-1.412-1.593-2.529 0-.756.23-1.379.69-1.866.46-.488 1.085-.777 1.874-.868V1.44h1.093v1.503c.793.114 1.406.45 1.84 1.009.432.558.649 1.284.649 2.177h-1.655c0-.574-.128-1.027-.386-1.357-.257-.33-.607-.496-1.05-.496-.437 0-.779.119-1.025.356-.246.237-.369.576-.369 1.018 0 .397.122.715.366.954.244.24.657.466 1.24.68.584.214 1.042.413 1.375.595.332.182.613.39.84.625.228.235.404.505.527.81.123.306.184.664.184 1.074 0 .77-.235 1.394-.707 1.873-.472.478-1.13.76-1.972.847v1.333h-1.087v-1.326c-.903-.1-1.596-.424-2.082-.97-.485-.547-.728-1.272-.728-2.174h1.661c0 .574.145 1.018.434 1.333.29.314.699.471 1.228.471.52 0 .914-.125 1.186-.376.27-.25.406-.583.406-.998zm14.3-7.355v6.651c0 1.058-.338 1.895-1.014 2.512-.677.618-1.578.927-2.704.927-1.14 0-2.044-.304-2.714-.913-.67-.608-1.005-1.453-1.005-2.533V3.047h1.723v6.658c0 .665.168 1.174.506 1.524.337.351.834.527 1.49.527 1.33 0 1.996-.702 1.996-2.106V3.047h1.723zm7.13 7.39c0-.438-.153-.775-.46-1.012-.308-.237-.863-.476-1.665-.718s-1.44-.51-1.914-.807c-.907-.57-1.36-1.312-1.36-2.228 0-.802.327-1.463.98-1.983.654-.52 1.503-.779 2.547-.779.693 0 1.31.128 1.852.383a3.04 3.04 0 0 1 1.279 1.09c.31.472.465.995.465 1.57h-1.723c0-.52-.163-.927-.489-1.221-.326-.294-.792-.441-1.398-.441-.565 0-1.004.12-1.316.362-.312.242-.468.58-.468 1.012 0 .365.169.669.506.913.337.243.893.48 1.668.71.775.23 1.397.493 1.866.787.47.294.814.63 1.032 1.011.219.381.328.826.328 1.337 0 .83-.317 1.489-.953 1.979-.636.49-1.498.735-2.588.735-.72 0-1.382-.134-1.985-.4-.604-.267-1.074-.635-1.409-1.104-.335-.47-.502-1.016-.502-1.64h1.73c0 .564.186 1.002.56 1.312.374.31.91.465 1.606.465.602 0 1.054-.122 1.357-.366a1.18 1.18 0 0 0 .455-.967zm3.33 2.563V3.047h2.94c.88 0 1.66.196 2.341.588a4.009 4.009 0 0 1 1.583 1.668c.373.72.56 1.545.56 2.474v.5c0 .943-.188 1.772-.564 2.488a3.96 3.96 0 0 1-1.606 1.654c-.695.387-1.492.581-2.39.581h-2.864zm1.73-8.559v7.178h1.128c.907 0 1.603-.284 2.088-.85.486-.568.733-1.383.742-2.445v-.553c0-1.08-.235-1.905-.704-2.475-.47-.57-1.151-.855-2.044-.855h-1.21z"/>
        <g transform="translate(1 1)">
            <use stroke="#E7E7E7" xlink:href="#a"/>
            <path fill="#CB001C" d="M.006 14.147h24.669v-1.105H.006z"/>
            <path fill="#FFF" d="M.006 13.04h24.669v-1.044H.006z"/>
            <path fill="#CB001C" d="M.006 12h24.669v-1.102H.006z"/>
            <path fill="#FFF" d="M.006 10.895h24.669V9.848H.006z"/>
            <path fill="#CB001C" d="M.006 9.848h24.669V8.682H.006z"/>
            <path fill="#FFF" d="M.006 8.685h24.669V7.584H.006z"/>
            <path fill="#CB001C" d="M.006 7.58h24.669V6.539H.006z"/>
            <path fill="#FFF" d="M.006 6.538h24.669V5.433H.006z"/>
            <path fill="#CB001C" d="M.006 5.433h24.669V4.39H.006z"/>
            <path fill="#FFF" d="M.006 4.39h24.669V3.285H.006z"/>
            <path fill="#CB001C" d="M.006 3.285h24.669V2.184H.006z"/>
            <path fill="#FFF" d="M.006 2.18h24.669V1.077H.006z"/>
            <path fill="#CB001C" d="M.006 1.076h24.669V.033H.006z"/>
            <path fill="#2A3560" d="M.006 7.58h11.266V.034H.006z"/>
            <path fill="#FFF" d="M1.007.83l.094.307h.328l-.266.188.094.239-.25-.123-.231.123.09-.24-.262-.187h.313zM1.007 2.12l.094.312h.328l-.266.181.094.307-.25-.187-.231.187.09-.307-.262-.18h.313zM1.007 3.408l.094.245h.328l-.266.187.094.304-.25-.184-.231.184.09-.304-.262-.187h.313zM1.007 4.633l.094.313h.328l-.266.181.094.307-.25-.184-.231.184.09-.307-.262-.181h.313zM1.007 5.984l.094.246h.328l-.266.187.094.304-.25-.181-.231.18.09-.303-.262-.187h.313zM1.915 1.508l.11.307h.293l-.25.12.097.367-.25-.184-.234.184.094-.368-.253-.12h.315zM1.915 2.793l.11.31h.293l-.25.181.097.249-.25-.126-.234.126.094-.249-.253-.18h.315zM1.915 4.085l.11.307h.293l-.25.122.097.304-.25-.184-.234.184.094-.304-.253-.122h.315zM1.915 5.31l.11.307h.293l-.25.181.097.31-.25-.187-.234.187.094-.31-.253-.181h.315zM2.822.83l.109.307h.312l-.265.188.094.239-.25-.123-.235.123.094-.24-.253-.187h.3zM2.822 2.12l.109.312h.312l-.265.181.094.307-.25-.187-.235.187.094-.307-.253-.18h.3zM2.822 3.408l.109.245h.312l-.265.187.094.304-.25-.184-.235.184.094-.304-.253-.187h.3zM2.822 4.633l.109.313h.312l-.265.181.094.307-.25-.184-.235.184.094-.307-.253-.181h.3zM2.822 5.984l.109.246h.312l-.265.187.094.304-.25-.181-.235.18.094-.303-.253-.187h.3zM3.742 1.508l.093.307h.297l-.25.12.094.367-.234-.184-.263.184.106-.368-.234-.12h.297zM3.742 2.793l.093.31h.297l-.25.181.094.249-.234-.126-.263.126.106-.249-.234-.18h.297zM3.742 4.085l.093.307h.297l-.25.122.094.304-.234-.184-.263.184.106-.304-.234-.122h.297zM3.742 5.31l.093.307h.297l-.25.181.094.31-.234-.187-.263.187.106-.31-.234-.181h.297zM4.648.83l.078.307h.328l-.265.188.094.239-.235-.123-.25.123.094-.24-.25-.187h.312zM4.648 2.12l.078.312h.328l-.265.181.094.307-.235-.187-.25.187.094-.307-.25-.18h.312zM4.648 3.408l.078.245h.328l-.265.187.094.304-.235-.184-.25.184.094-.304-.25-.187h.312zM4.648 4.633l.078.313h.328l-.265.181.094.307-.235-.184-.25.184.094-.307-.25-.181h.312zM4.648 5.984l.078.246h.328l-.265.187.094.304-.235-.181-.25.18.094-.303-.25-.187h.312zM5.554 1.508l.091.307h.3l-.25.12.125.367-.266-.184-.25.184.094-.368-.234-.12h.297zM5.554 2.793l.091.31h.3l-.25.181.125.249-.266-.126-.25.126.094-.249-.234-.18h.297zM5.554 4.085l.091.307h.3l-.25.122.125.304-.266-.184-.25.184.094-.304-.234-.122h.297zM5.554 5.31l.091.307h.3l-.25.181.125.31-.266-.187-.25.187.094-.31-.234-.181h.297zM6.46.83l.08.307h.327l-.265.188.093.239-.234-.123-.234.123.078-.24-.25-.187h.312zM6.46 2.12l.08.312h.327l-.265.181.093.307-.234-.187-.234.187.078-.307-.25-.18h.312zM6.46 3.408l.08.245h.327l-.265.187.093.304-.234-.184-.234.184.078-.304-.25-.187h.312zM6.46 4.633l.08.313h.327l-.265.181.093.307-.234-.184-.234.184.078-.307-.25-.181h.312zM6.46 5.984l.08.246h.327l-.265.187.093.304-.234-.181-.234.18.078-.303-.25-.187h.312zM7.367 1.508l.094.307h.31l-.248.12.079.367-.235-.184-.25.184.094-.368-.234-.12h.296zM7.367 2.793l.094.31h.31l-.248.181.079.249-.235-.126-.25.126.094-.249-.234-.18h.296zM7.367 4.085l.094.307h.31l-.248.122.079.304-.235-.184-.25.184.094-.304-.234-.122h.296zM7.367 5.31l.094.307h.31l-.248.181.079.31-.235-.187-.25.187.094-.31-.234-.181h.296zM8.272.83l.094.307h.312l-.266.188.094.239-.234-.123-.235.123.079-.24-.235-.187h.297zM8.272 2.12l.094.312h.312l-.266.181.094.307-.234-.187-.235.187.079-.307-.235-.18h.297zM8.272 3.408l.094.245h.312l-.266.187.094.304-.234-.184-.235.184.079-.304-.235-.187h.297zM8.272 4.633l.094.313h.312l-.266.181.094.307-.234-.184-.235.184.079-.307-.235-.181h.297zM8.272 5.984l.094.246h.312l-.266.187.094.304-.234-.181-.235.18.079-.303-.235-.187h.297zM9.18 1.508l.09.307h.316l-.253.12.081.367-.234-.184-.234.184.078-.368-.235-.12h.297zM9.18 2.793l.09.31h.316l-.253.181.081.249-.234-.126-.234.126.078-.249-.235-.18h.297zM9.18 4.085l.09.307h.316l-.253.122.081.304-.234-.184-.234.184.078-.304-.235-.122h.297zM9.18 5.31l.09.307h.316l-.253.181.081.31-.234-.187-.234.187.078-.31-.235-.181h.297zM10.083.83l.094.307h.347l-.3.188.094.239-.235-.123-.234.123.094-.24-.247-.187h.296zM10.083 2.12l.094.312h.347l-.3.181.094.307-.235-.187-.234.187.094-.307-.247-.18h.296zM10.083 3.408l.094.245h.347l-.3.187.094.304-.235-.184-.234.184.094-.304-.247-.187h.296zM10.083 4.633l.094.313h.347l-.3.181.094.307-.235-.184-.234.184.094-.307-.247-.181h.296zM10.083 5.984l.094.246h.347l-.3.187.094.304-.235-.181-.234.18.094-.303-.247-.187h.296z"/>
        </g>
    </g>
</svg>
