<svg xmlns="http://www.w3.org/2000/svg" width="183" height="15" viewBox="0 0 183 15">
    <g fill="none" fill-rule="evenodd">
        <path fill="#333434" d="M40.214 10.437c0-.438-.154-.775-.462-1.012-.307-.237-.862-.476-1.664-.718-.802-.242-1.44-.51-1.914-.807-.907-.57-1.36-1.312-1.36-2.228 0-.802.326-1.463.98-1.983.654-.52 1.503-.779 2.547-.779.693 0 1.31.128 1.852.383a3.04 3.04 0 0 1 1.279 1.09c.31.472.465.995.465 1.57h-1.723c0-.52-.163-.927-.489-1.221-.326-.294-.792-.441-1.398-.441-.565 0-1.004.12-1.316.362-.312.242-.468.58-.468 1.012 0 .365.169.669.506.913.337.243.893.48 1.668.71.775.23 1.397.493 1.866.787.47.294.813.63 1.032 1.011.219.381.328.826.328 1.337 0 .83-.318 1.489-.953 1.979-.636.49-1.498.735-2.588.735-.72 0-1.382-.134-1.985-.4-.604-.267-1.074-.635-1.409-1.104-.335-.47-.502-1.016-.502-1.64h1.73c0 .564.186 1.002.56 1.312.374.31.91.465 1.606.465.602 0 1.054-.122 1.357-.366a1.18 1.18 0 0 0 .455-.967zm11.273-2.154c0 .975-.169 1.831-.506 2.567-.337.736-.82 1.301-1.446 1.695-.627.395-1.348.592-2.164.592-.806 0-1.525-.197-2.156-.592-.632-.394-1.12-.955-1.463-1.685-.344-.729-.519-1.57-.523-2.522v-.56c0-.971.172-1.828.516-2.571.344-.743.83-1.311 1.456-1.706.627-.394 1.346-.59 2.157-.59.81 0 1.53.194 2.156.584.627.39 1.111.95 1.453 1.681.342.732.515 1.583.52 2.553v.554zm-1.73-.52c0-1.102-.208-1.948-.625-2.535-.417-.588-1.009-.882-1.774-.882-.748 0-1.332.293-1.754.878-.421.586-.637 1.414-.646 2.485v.574c0 1.094.213 1.94.64 2.536.426.597 1.017.896 1.773.896.766 0 1.355-.292 1.768-.875.412-.583.618-1.436.618-2.557v-.52zm10.815-4.716v6.651c0 1.058-.338 1.895-1.015 2.512-.677.618-1.578.927-2.704.927-1.14 0-2.044-.304-2.714-.913-.67-.608-1.005-1.453-1.005-2.533V3.047h1.723v6.658c0 .665.169 1.174.506 1.524.337.351.834.527 1.49.527 1.33 0 1.996-.702 1.996-2.106V3.047h1.723zm9.12 1.394h-3.104V13h-1.716V4.441h-3.076V3.047h7.895V4.44zM78.981 13h-1.723V8.577h-4.45V13h-1.73V3.047h1.73v4.142h4.45V3.047h1.723V13zm11.266-2.317h-3.855L85.586 13h-1.798l3.76-9.953H89.1L92.866 13h-1.804l-.814-2.317zm-3.37-1.395h2.885L88.32 5.16l-1.442 4.13zm12.934-.506h-4.006V13h-1.73V3.047h6.324V4.44h-4.594v2.96h4.006v1.381zm5.694.383h-1.927V13h-1.73V3.047h3.5c1.149 0 2.035.257 2.66.772.624.515.936 1.26.936 2.236 0 .665-.16 1.222-.482 1.671-.321.449-.769.794-1.343 1.036l2.235 4.15V13h-1.852l-1.997-3.835zm-1.927-1.388h1.777c.583 0 1.04-.147 1.367-.44.328-.295.492-.697.492-1.207 0-.533-.151-.946-.454-1.237-.303-.292-.755-.442-1.357-.452h-1.825v3.336zM112.493 13h-1.723V3.047h1.723V13zm9.803-3.24c-.1 1.062-.492 1.89-1.176 2.485-.683.594-1.592.892-2.727.892-.793 0-1.492-.188-2.095-.564-.604-.376-1.07-.91-1.398-1.603-.328-.693-.5-1.497-.513-2.413v-.93c0-.939.166-1.766.499-2.481.333-.716.81-1.267 1.432-1.655.622-.387 1.341-.58 2.157-.58 1.098 0 1.982.298 2.652.895.67.597 1.06 1.44 1.17 2.529h-1.723c-.083-.716-.291-1.232-.626-1.548-.335-.317-.826-.475-1.473-.475-.752 0-1.33.274-1.733.823-.403.55-.61 1.355-.619 2.417v.882c0 1.075.193 1.895.578 2.46.385.566.949.848 1.692.848.679 0 1.19-.152 1.531-.458.342-.305.558-.813.65-1.524h1.722zm7.199.923h-3.856L124.833 13h-1.798l3.76-9.953h1.551L132.113 13h-1.805l-.813-2.317zm-3.37-1.395h2.884l-1.442-4.129-1.442 4.13zm13.83.15h-3.59v-1.34h3.59v1.34zm8.839-.273h-1.928V13h-1.73V3.047h3.5c1.15 0 2.035.257 2.66.772.624.515.936 1.26.936 2.236 0 .665-.16 1.222-.482 1.671-.32.449-.769.794-1.343 1.036l2.236 4.15V13h-1.853l-1.996-3.835zm-1.928-1.388h1.777c.584 0 1.04-.147 1.368-.44.328-.295.492-.697.492-1.207 0-.533-.152-.946-.455-1.237-.303-.292-.755-.442-1.357-.452h-1.825v3.336zm12.285 3.842h5.318V13h-7.41v-1.121l5.148-7.438h-5.114V3.047h7.212V4.14l-5.154 7.478zm12.544-.936h-3.855L167.033 13h-1.798l3.76-9.953h1.552L174.313 13h-1.804l-.814-2.317zm-3.37-1.395h2.885l-1.442-4.129-1.443 4.13zm10.856-.123h-1.928V13h-1.73V3.047h3.5c1.15 0 2.036.257 2.66.772.624.515.936 1.26.936 2.236 0 .665-.16 1.222-.482 1.671-.32.449-.769.794-1.343 1.036l2.236 4.15V13h-1.853l-1.996-3.835zm-1.928-1.388h1.778c.583 0 1.039-.147 1.367-.44.328-.295.492-.697.492-1.207 0-.533-.152-.946-.455-1.237-.303-.292-.755-.442-1.357-.452h-1.825v3.336z"/>
        <path fill="#000" d="M0 3.214L6.572 7.67 0 11.96z"/>
        <path fill="#D03033" d="M4.545 0l7.28 5.192H25V0z"/>
        <path fill="#FFF" d="M11.364 5.192l1.403 1.042h11.665V5.192zM12.767 8.654l-1.403 1.111h13.068V8.654z"/>
        <path fill="#1F189B" d="M11.827 9.808L4.545 15H25V9.808z"/>
        <path fill="#F2B126" d="M0 3.239L6.273 7.5 0 11.562v1.616L8.523 7.51 0 1.644z"/>
        <path fill="#32784C" d="M0 0v1.834L8.146 7.5 0 12.951V15h2.604l8.53-6.042h13.298V5.977H11.133L2.604 0z"/>
        <path fill="#E6E6E6" d="M.568 14.464h23.864V.536H.568v13.928zM0 15h25V0H0v15z"/>
    </g>
</svg>
