<?xml version="1.0" encoding="UTF-8" standalone="no"?>
<svg width="238px" height="45px" viewBox="0 0 238 45" version="1.1" xmlns="http://www.w3.org/2000/svg" xmlns:xlink="http://www.w3.org/1999/xlink">
    <!-- Generator: Sketch 50.2 (55047) - http://www.bohemiancoding.com/sketch -->
    <title>CottonOn-Logo-1024+1440px</title>
    <desc>Created with Sketch.</desc>
    <defs></defs>
    <g id="New-Logo---all-breakpoints" stroke="none" stroke-width="1" fill="none" fill-rule="evenodd">
        <g id="Desktop---Homepage" transform="translate(-393.000000, -122.000000)">
            <g id="CottonOn-Logo-1024+1440px" transform="translate(393.000000, 122.000000)">
                <path d="M174.5,16.9219969 C172.01469,16.9219969 170,14.925117 170,12.4617785 C170,9.99687988 172.01469,8 174.5,8 C176.986884,8 179,9.99687988 179,12.4617785 C179,14.925117 176.986884,16.9219969 174.5,16.9219969 M174.5,38 C176.986884,38 179,36.0015601 179,33.5382215 C179,31.0733229 176.986884,29.0764431 174.5,29.0764431 C172.01469,29.0764431 170,31.0733229 170,33.5382215 C170,36.0015601 172.01469,38 174.5,38" id="Fill-1" fill="#1D1D1B"></path>
                <path d="M23.9287089,33.7492226 C23.9287089,40.2142215 19.9390437,45 12.3495528,45 C4.69508866,45 0,39.8270679 0,33.1677147 L0,11.8307304 C0,5.17137724 4.69508866,0 12.3495528,0 C19.9390437,0 23.9287089,4.78422362 23.9287089,11.2492226 L23.9287089,16.4874577 L16.7878425,16.4874577 L16.7878425,11.3145256 C16.7878425,8.79103034 15.3739015,7.04650681 12.4779523,7.04650681 C9.58355,7.04650681 8.10463574,8.79103034 8.10463574,11.1839196 L8.10463574,33.8129708 C8.10463574,36.20586 9.58355,37.9519384 12.4779523,37.9519384 C15.3739015,37.9519384 16.7878425,36.20586 16.7878425,33.6854744 L16.7878425,28.5109875 L23.9287089,28.5109875 L23.9287089,33.7492226 Z M53.0506344,33.2314629 C53.0506344,40.0867252 48.420519,45 40.8929073,45 C33.4302688,45 28.7351802,40.0867252 28.7351802,33.2314629 L28.7351802,11.7654274 C28.7351802,4.97702301 33.4302688,0.0653030198 40.8929073,0.0653030198 C48.420519,0.0653030198 53.0506344,4.97702301 53.0506344,11.7654274 L53.0506344,33.2314629 Z M45.0094249,33.7492226 L45.0094249,11.2492226 C45.0094249,8.72883698 43.5305106,7.04650681 40.8929073,7.04650681 C38.3202772,7.04650681 36.8413629,8.72883698 36.8413629,11.2492226 L36.8413629,33.7492226 C36.8413629,36.271163 38.3202772,37.9519384 40.8929073,37.9519384 C43.5305106,37.9519384 45.0094249,36.271163 45.0094249,33.7492226 L45.0094249,33.7492226 Z M80.5126488,8.08047129 L80.5126488,0.970216295 L56.7107925,0.970216295 L56.7107925,8.08047129 L64.6220555,8.08047129 L64.6220555,44.0297837 L72.663265,44.0297837 L72.663265,8.08047129 L80.5126488,8.08047129 Z M107.974663,8.08047129 L107.974663,0.970216295 L84.1728069,0.970216295 L84.1728069,8.08047129 L92.087164,8.08047129 L92.087164,44.0297837 L100.126826,44.0297837 L100.126826,8.08047129 L107.974663,8.08047129 Z M135.951823,33.2314629 C135.951823,40.0867252 131.32016,45 123.792548,45 C116.32991,45 111.636368,40.0867252 111.636368,33.2314629 L111.636368,11.7654274 C111.636368,4.97702301 116.32991,0.0653030198 123.792548,0.0653030198 C131.32016,0.0653030198 135.951823,4.97702301 135.951823,11.7654274 L135.951823,33.2314629 Z M127.910613,33.7492226 L127.910613,11.2492226 C127.910613,8.72883698 126.431699,7.04650681 123.792548,7.04650681 C121.219918,7.04650681 119.741004,8.72883698 119.741004,11.2492226 L119.741004,33.7492226 C119.741004,36.271163 121.219918,37.9519384 123.792548,37.9519384 C126.431699,37.9519384 127.910613,36.271163 127.910613,33.7492226 L127.910613,33.7492226 Z M165.587346,44.0297837 L165.587346,0.970216295 L158.383053,0.970216295 L158.383053,26.5083616 L155.552077,19.6530993 L147.639267,0.970216295 L140.7552,0.970216295 L140.7552,44.0297837 L148.090986,44.0297837 L148.090986,18.8150439 L151.112241,25.6671965 L159.411796,44.0297837 L165.587346,44.0297837 Z M208.364477,33.2314629 C208.364477,40.0867252 203.732814,45 196.205203,45 C188.742564,45 184.049022,40.0867252 184.049022,33.2314629 L184.049022,11.7654274 C184.049022,4.97702301 188.742564,0.0653030198 196.205203,0.0653030198 C203.732814,0.0653030198 208.364477,4.97702301 208.364477,11.7654274 L208.364477,33.2314629 Z M200.32172,33.7492226 L200.32172,11.2492226 C200.32172,8.72883698 198.842806,7.04650681 196.205203,7.04650681 C193.632572,7.04650681 192.153658,8.72883698 192.153658,11.2492226 L192.153658,33.7492226 C192.153658,36.271163 193.632572,37.9519384 196.205203,37.9519384 C198.842806,37.9519384 200.32172,36.271163 200.32172,33.7492226 L200.32172,33.7492226 Z M238,44.0297837 L238,0.970216295 L230.795707,0.970216295 L230.795707,26.5083616 L227.964731,19.6530993 L220.051921,0.970216295 L213.167854,0.970216295 L213.167854,44.0297837 L220.502093,44.0297837 L220.502093,18.8150439 L223.524895,25.6671965 L231.82445,44.0297837 L238,44.0297837 Z" id="Fill-3" fill="#E30E2E"></path>
            </g>
        </g>
    </g>
</svg>