<svg xmlns="http://www.w3.org/2000/svg" xmlns:xlink="http://www.w3.org/1999/xlink" width="167" height="17" viewBox="0 0 167 17">
    <defs>
        <path id="a" d="M24.697 7.418v7.2H.247V.218h24.45v7.2z"/>
    </defs>
    <g fill="none" fill-rule="evenodd">
        <path fill="#333434" d="M43.914 13h-1.723V8.577h-4.45V13h-1.73V3.047h1.73v4.142h4.45V3.047h1.723V13zm10.07-4.717c0 .975-.169 1.831-.506 2.567-.337.736-.82 1.301-1.446 1.695-.627.395-1.348.592-2.164.592-.806 0-1.525-.197-2.156-.592-.631-.394-1.12-.955-1.463-1.685-.344-.729-.519-1.57-.523-2.522v-.56c0-.971.172-1.828.516-2.571.344-.743.83-1.311 1.456-1.706.627-.394 1.346-.59 2.157-.59.811 0 1.53.194 2.157.584.626.39 1.11.95 1.452 1.681.342.732.515 1.583.52 2.553v.554zm-1.73-.52c0-1.102-.208-1.948-.625-2.535-.417-.588-1.009-.882-1.774-.882-.748 0-1.332.293-1.754.878-.421.586-.636 1.414-.646 2.485v.574c0 1.094.213 1.94.64 2.536.426.597 1.017.896 1.773.896.766 0 1.355-.292 1.768-.875.412-.583.618-1.436.618-2.557v-.52zM63.684 13h-1.73l-4.436-7.062V13h-1.73V3.047h1.73l4.45 7.089v-7.09h1.716V13zm9.755-1.292c-.36.47-.859.825-1.497 1.066-.638.242-1.362.363-2.173.363-.834 0-1.573-.19-2.215-.568a3.78 3.78 0 0 1-1.487-1.623c-.349-.704-.53-1.526-.544-2.465v-.779c0-1.504.36-2.678 1.08-3.524.72-.845 1.725-1.268 3.015-1.268 1.108 0 1.987.274 2.639.82.652.547 1.043 1.336 1.176 2.366h-1.696c-.191-1.199-.886-1.798-2.085-1.798-.774 0-1.363.279-1.767.837-.403.559-.612 1.378-.625 2.458v.765c0 1.076.226 1.911.68 2.506.453.594 1.083.892 1.89.892.884 0 1.513-.2 1.887-.602V9.206h-2.051V7.894h3.773v3.814zM81.85 8.7L80.72 9.896V13h-1.73V3.047h1.73v4.669l.957-1.183 2.912-3.486h2.092l-3.698 4.41L86.893 13h-2.05l-2.995-4.3zm13.78-.417c0 .975-.168 1.831-.505 2.567-.337.736-.82 1.301-1.446 1.695-.626.395-1.348.592-2.163.592-.807 0-1.526-.197-2.157-.592-.631-.394-1.119-.955-1.463-1.685-.344-.729-.518-1.57-.523-2.522v-.56c0-.971.172-1.828.516-2.571.344-.743.83-1.311 1.456-1.706.627-.394 1.346-.59 2.157-.59.811 0 1.53.194 2.157.584.626.39 1.11.95 1.452 1.681.342.732.515 1.583.52 2.553v.554zm-1.729-.52c0-1.102-.208-1.948-.625-2.535-.417-.588-1.008-.882-1.774-.882-.747 0-1.332.293-1.753.878-.422.586-.637 1.414-.646 2.485v.574c0 1.094.213 1.94.639 2.536.426.597 1.017.896 1.774.896.765 0 1.354-.292 1.767-.875.412-.583.618-1.436.618-2.557v-.52zM105.33 13h-1.73l-4.436-7.062V13h-1.73V3.047h1.73l4.45 7.089v-7.09h1.716V13zm9.756-1.292c-.36.47-.86.825-1.497 1.066-.639.242-1.363.363-2.174.363-.834 0-1.573-.19-2.215-.568a3.78 3.78 0 0 1-1.487-1.623c-.349-.704-.53-1.526-.543-2.465v-.779c0-1.504.36-2.678 1.08-3.524.72-.845 1.725-1.268 3.014-1.268 1.108 0 1.987.274 2.639.82.652.547 1.044 1.336 1.176 2.366h-1.696c-.191-1.199-.886-1.798-2.085-1.798-.774 0-1.363.279-1.767.837-.403.559-.611 1.378-.625 2.458v.765c0 1.076.227 1.911.68 2.506.454.594 1.084.892 1.89.892.884 0 1.513-.2 1.887-.602V9.206h-2.05V7.894h3.773v3.814zm8.614-2.27h-3.59v-1.34h3.59v1.34zm9.769.964c0-.387-.123-.707-.37-.96-.246-.253-.656-.48-1.23-.684-.574-.202-1.02-.39-1.34-.564-1.062-.57-1.593-1.412-1.593-2.529 0-.756.23-1.379.69-1.866.461-.488 1.086-.777 1.874-.868V1.44h1.094v1.503c.793.114 1.406.45 1.839 1.009.433.558.649 1.284.649 2.177h-1.654c0-.574-.13-1.027-.387-1.357-.257-.33-.607-.496-1.049-.496-.437 0-.78.119-1.025.356-.246.237-.37.576-.37 1.018 0 .397.123.715.366.954.244.24.658.466 1.241.68.583.214 1.041.413 1.374.595.333.182.613.39.84.625.229.235.404.505.527.81.123.306.185.664.185 1.074 0 .77-.236 1.394-.708 1.873-.471.478-1.129.76-1.972.847v1.333h-1.087v-1.326c-.902-.1-1.596-.424-2.081-.97-.486-.547-.728-1.272-.728-2.174h1.66c0 .574.145 1.018.435 1.333.29.314.698.471 1.227.471.52 0 .915-.125 1.186-.376.271-.25.407-.583.407-.998zM148.392 13h-1.722V8.577h-4.45V13h-1.73V3.047h1.73v4.142h4.45V3.047h1.722V13zm4.984-4.3l-1.128 1.196V13h-1.73V3.047h1.73v4.669l.957-1.183 2.912-3.486h2.092l-3.698 4.41L158.42 13h-2.05l-2.995-4.3zm6.05 4.3V3.047h2.94c.88 0 1.66.196 2.34.588a4.009 4.009 0 0 1 1.583 1.668c.374.72.56 1.545.56 2.474v.5c0 .943-.187 1.772-.563 2.488a3.96 3.96 0 0 1-1.607 1.654c-.695.387-1.49.581-2.389.581h-2.864zm1.73-8.559v7.178h1.127c.907 0 1.603-.284 2.089-.85.485-.568.732-1.383.742-2.445v-.553c0-1.08-.235-1.905-.705-2.475-.469-.57-1.15-.855-2.044-.855h-1.21z"/>
        <g transform="translate(1 1)">
            <mask id="b" fill="#fff">
                <use xlink:href="#a"/>
            </mask>
            <use stroke="#E7E7E7" xlink:href="#a"/>
            <path fill="#CB1D23" d="M.246 14.622h24.45V.218H.247z" mask="url(#b)"/>
            <path fill="#FFF" d="M12.448 7.418c-1.098-.453-1.611-1.718-1.175-2.843.34-.872 1.268-1.422 2.193-1.36-.353.188-.57.594-.29 1.032.309.5.123 1.296-.465 1.593-.495.25-.881.985-.263 1.578" mask="url(#b)"/>
            <path fill="#CB1D23" d="M12.262 5.154l.279-.64-.588.359.68.062-.51-.453zM12.478 7.386c-.804-.497-.866-1.61-.448-2.231h-.047c-.402.544-.433 1.75.464 2.281l.031-.05z" mask="url(#b)"/>
            <path fill="#FFF" d="M12.448 7.418a2.195 2.195 0 0 1 2.333-2.015c.943.062 1.732.75 1.949 1.687-.263-.293-.755-.39-1.08.047-.34.438-1.144.5-1.624.016-.371-.39-1.206-.531-1.578.265" mask="url(#b)"/>
            <path fill="#CB1D23" d="M14.55 6.527l.68.063-.51-.453.139.671.266-.621zM12.509 7.418c.216-.937 1.237-1.328 1.964-1.109l.016-.062c-.681-.204-1.807.14-2.073 1.171h.093z" mask="url(#b)"/>
            <path fill="#FFF" d="M12.448 7.418a2.128 2.128 0 0 1-3.031.266 2.154 2.154 0 0 1-.591-2.531c.065.39.39.75.87.612.553-.159 1.283.263 1.36.935.062.547.665 1.14 1.392.718" mask="url(#b)"/>
            <path fill="#CB1D23" d="M10.25 6.904l-.494-.456.139.672.263-.637-.573.371zM12.417 7.401c-.681.61-1.733.313-2.212-.262l-.047.047c.402.528 1.532.95 2.32.25l-.061-.035z" mask="url(#b)"/>
            <path fill="#FFF" d="M12.448 7.418c1.176-.28 2.348.407 2.63 1.594a2.151 2.151 0 0 1-.99 2.39c.186-.343.124-.827-.359-1-.541-.187-.848-.968-.541-1.562.266-.468.127-1.312-.74-1.422" mask="url(#b)"/>
            <path fill="#CB1D23" d="M13.95 9.152l.136.675.294-.644-.604.344.696.065zM12.478 7.45c.928-.076 1.609.796 1.64 1.546l.062-.016c-.016-.687-.665-1.687-1.733-1.593l.031.062z" mask="url(#b)"/>
            <path fill="#FFF" d="M12.448 7.418c.647 1.016.356 2.375-.68 2.997a2.033 2.033 0 0 1-2.537-.2c.368.094.805-.128.835-.672 0-.562.65-1.14 1.3-.984.507.11 1.28-.281 1.082-1.14" mask="url(#b)"/>
            <path fill="#CB1D23" d="M11.288 9.372l-.556.343.65.078-.48-.453.139.672zM12.417 7.435c.402.875-.232 1.81-.929 2.044l.031.062c.65-.2 1.392-1.137.99-2.122l-.092.016z" mask="url(#b)"/>
            <path fill="#CB1D23" d="M12.448 7.339c.093 0 .121.034.121.078 0 .05-.028.097-.12.097-.032 0-.062-.047-.062-.097 0-.044.03-.078.061-.078" mask="url(#b)"/>
        </g>
    </g>
</svg>
