<svg xmlns="http://www.w3.org/2000/svg" xmlns:xlink="http://www.w3.org/1999/xlink" width="173" height="16" viewBox="0 0 173 16">
    <defs>
        <path id="a" d="M.34 14.06h24.38V.233H.34z"/>
    </defs>
    <g fill="none" fill-rule="evenodd">
        <path fill="#333434" d="M38.254 3.047l2.871 7.629 2.864-7.63h2.236V13h-1.723V9.719l.17-4.389L41.734 13h-1.237l-2.933-7.663.171 4.382V13h-1.722V3.047h2.242zm15.791 7.636H50.19L49.383 13h-1.798l3.76-9.953h1.552L56.663 13H54.86l-.814-2.317zm-3.37-1.395h2.885L52.118 5.16l-1.443 4.13zm8.928 2.331h4.519V13h-6.248V3.047h1.73v8.572zm11.628-.936h-3.855L66.569 13h-1.798l3.76-9.953h1.552L73.85 13h-1.805l-.814-2.317zm-3.37-1.395h2.885L69.304 5.16 67.86 9.29zm9.42-1.524l2.29-4.717h1.915L78.15 9.336V13h-1.737V9.336l-3.342-6.29h1.92l2.29 4.718zm10.46 2.673c0-.438-.154-.775-.462-1.012-.307-.237-.862-.476-1.664-.718-.802-.242-1.44-.51-1.914-.807-.907-.57-1.36-1.312-1.36-2.228 0-.802.326-1.463.98-1.983.654-.52 1.503-.779 2.547-.779.693 0 1.31.128 1.852.383A3.04 3.04 0 0 1 89 4.383c.31.472.465.995.465 1.57H87.74c0-.52-.163-.927-.489-1.221-.326-.294-.792-.441-1.398-.441-.565 0-1.004.12-1.316.362-.312.242-.468.58-.468 1.012 0 .365.169.669.506.913.337.243.893.48 1.668.71.775.23 1.397.493 1.866.787.47.294.813.63 1.032 1.011.219.381.328.826.328 1.337 0 .83-.318 1.489-.953 1.979-.636.49-1.498.735-2.588.735-.72 0-1.382-.134-1.985-.4-.604-.267-1.074-.635-1.409-1.104-.335-.47-.502-1.016-.502-1.64h1.73c0 .564.186 1.002.56 1.312.374.31.91.465 1.606.465.602 0 1.054-.122 1.357-.366a1.18 1.18 0 0 0 .455-.967zM92.895 13h-1.722V3.047h1.722V13zm7.903-2.317h-3.855L96.136 13h-1.798l3.76-9.953h1.552L103.416 13h-1.804l-.814-2.317zm-3.37-1.395h2.885L98.87 5.16l-1.442 4.13zm17.398.15h-3.588v-1.34h3.588v1.34zm8.84-.273h-1.928V13h-1.73V3.047h3.5c1.15 0 2.036.257 2.66.772.624.515.936 1.26.936 2.236 0 .665-.16 1.222-.481 1.671-.322.449-.77.794-1.344 1.036l2.236 4.15V13h-1.853l-1.996-3.835zm-1.928-1.388h1.778c.583 0 1.039-.147 1.367-.44.328-.295.492-.697.492-1.207 0-.533-.152-.946-.455-1.237-.303-.292-.755-.442-1.357-.452h-1.825v3.336zm9.332-4.73l2.87 7.629 2.865-7.63h2.235V13h-1.722V9.719l.17-4.389L134.55 13h-1.237l-2.933-7.663.171 4.382V13h-1.723V3.047h2.243zm15.907 0l2.872 7.629 2.864-7.63h2.235V13h-1.722V9.719l.17-4.389-2.939 7.67h-1.237l-2.933-7.663.171 4.382V13h-1.723V3.047h2.242zm13.153 4.717l2.29-4.717h1.914l-3.336 6.289V13h-1.736V9.336l-3.343-6.29h1.921l2.29 4.718zm9.024 1.401h-1.928V13h-1.73V3.047h3.5c1.15 0 2.036.257 2.66.772.624.515.936 1.26.936 2.236 0 .665-.16 1.222-.482 1.671-.32.449-.769.794-1.343 1.036l2.236 4.15V13h-1.853l-1.996-3.835zm-1.928-1.388h1.778c.583 0 1.039-.147 1.367-.44.328-.295.492-.697.492-1.207 0-.533-.152-.946-.455-1.237-.303-.292-.755-.442-1.357-.452h-1.825v3.336z"/>
        <g transform="translate(1 1)">
            <mask id="b" fill="#fff">
                <use xlink:href="#a"/>
            </mask>
            <use stroke="#E7E7E7" xlink:href="#a"/>
            <path fill="#D80031" d="M.34 1.223h24.38v-.99H.34z" mask="url(#b)"/>
            <path fill="#FFF" d="M.34 2.213h24.38v-.99H.34z" mask="url(#b)"/>
            <path fill="#D80031" d="M.34 3.218h24.38V2.213H.34z" mask="url(#b)"/>
            <path fill="#FFF" d="M.34 4.19h24.38v-.975H.34z" mask="url(#b)"/>
            <path fill="#D80031" d="M.34 5.183h24.38v-.99H.34z" mask="url(#b)"/>
            <path fill="#FFF" d="M.34 6.155h24.38v-.972H.34z" mask="url(#b)"/>
            <path fill="#D80031" d="M.34 7.145h24.38v-.99H.34z" mask="url(#b)"/>
            <path fill="#FFF" d="M.34 8.12h24.38v-.975H.34z" mask="url(#b)"/>
            <path fill="#D80031" d="M.34 9.11h24.38v-.99H.34z" mask="url(#b)"/>
            <path fill="#FFF" d="M.34 10.13h24.38V9.107H.34z" mask="url(#b)"/>
            <path fill="#D80031" d="M.34 11.105h24.38v-.972H.34z" mask="url(#b)"/>
            <path fill="#FFF" d="M.34 12.095h24.38v-.99H.34z" mask="url(#b)"/>
            <path fill="#D80031" d="M.34 13.07h24.38v-.975H.34z" mask="url(#b)"/>
            <path fill="#FFF" d="M.34 14.06h24.38v-.99H.34z" mask="url(#b)"/>
            <path fill="#2530A9" d="M.34 8.12h14.225V.233H.34z" mask="url(#b)"/>
            <path fill="#F5D028" d="M4.166 4.192c0-1.44 1.173-2.595 2.652-2.595.527 0 .99.15 1.388.375a3.089 3.089 0 0 0-2.003-.75c-1.67 0-3.055 1.335-3.055 2.97 0 1.635 1.386 2.952 3.055 2.952.772 0 1.482-.282 2.003-.765-.398.273-.86.408-1.388.408-1.479 0-2.652-1.17-2.652-2.595" mask="url(#b)"/>
            <path fill="#F5D028" d="M10.246 4.192l1.481-.57-1.546.135 1.052-1.125-1.358.795.491-1.47-.889 1.275-.25-1.515-.154 1.065-.059.33-.03.12-.84-1.275.469 1.47-1.361-.795 1.08 1.125-1.543-.135 1.42.57-1.42.54 1.543-.12-1.08 1.125 1.361-.765-.47 1.44.84-1.245.031.105.059.3.154 1.095.25-1.5.889 1.245-.49-1.44 1.357.765-1.052-1.125 1.546.12z" mask="url(#b)"/>
        </g>
    </g>
</svg>
